<?xml version="1.0" encoding="utf-8"?>
<svg xmlns="http://www.w3.org/2000/svg" xmlns:xlink="http://www.w3.org/1999/xlink" viewBox="0 0 100 100" style="fill: white">
  <path d="M44.6,44.5c-0.4-1.2-0.7-2.4-1.1-3.5c-0.4-1.2-0.7-2.3-1-3.4c-0.3-1.1-0.6-2.1-0.8-3h-0.1c-0.3,1.7-0.8,3.4-1.3,5c-0.6,1.9-1.2,3.8-1.8,5.7c-0.5,2-1.1,3.8-1.7,5.4h9.8c-0.2-0.8-0.5-1.8-0.9-2.8C45.2,46.8,44.9,45.7,44.6,44.5"/>
  <path d="M80.3,4.4H20.4C11.4,4.4,4.1,11.7,4,20.8c0,0,0,0,0,0v57.5c0,9.1,7.3,16.4,16.4,16.4c0,0,0,0,0,0h59.8c9.1,0,16.4-7.3,16.4-16.4c0,0,0,0,0,0V20.8C96.7,11.8,89.4,4.4,80.3,4.4C80.3,4.4,80.3,4.4,80.3,4.4M60.7,68.1h-8.1c-0.3,0-0.5-0.2-0.6-0.4l-3.2-9.2H34.5l-2.9,9.1c-0.1,0.3-0.4,0.6-0.7,0.5h-7.3c-0.4,0-0.5-0.2-0.4-0.7l12.4-35.8c0.1-0.4,0.2-0.8,0.4-1.3c0.2-0.8,0.2-1.7,0.2-2.5c0-0.2,0.1-0.4,0.3-0.4h10c0.3,0,0.5,0.1,0.5,0.3L61,67.4C61.1,67.9,61,68,60.7,68.1 M74,67.6c0,0.4-0.2,0.6-0.5,0.6h-7.5c-0.3,0-0.6-0.2-0.6-0.5c0,0,0-0.1,0-0.1V37.9c0-0.4,0.2-0.5,0.5-0.5h7.6c0.3,0,0.5,0.2,0.5,0.5L74,67.6z M73.1,32.8c-0.9,0.9-2.2,1.4-3.5,1.4c-1.3,0-2.5-0.5-3.4-1.4c-0.9-1-1.4-2.2-1.3-3.5c0-1.3,0.5-2.5,1.4-3.4c0.9-0.9,2.2-1.4,3.4-1.4c1.3-0.1,2.6,0.4,3.5,1.4c0.9,0.9,1.3,2.2,1.3,3.4C74.5,30.5,74,31.8,73.1,32.8"/>
</svg>