<?xml version="1.0" encoding="utf-8"?>
<svg xmlns="http://www.w3.org/2000/svg" xmlns:xlink="http://www.w3.org/1999/xlink" viewBox="0 0 100 100" style="fill: white">
	<path d="M29,42.1c0,1,0.1,1.9,0.4,2.8c0.3,0.8,0.6,1.6,1,2.3c0.1,0.2,0.2,0.5,0.2,0.7c0,0.4-0.3,0.8-0.6,1l-2,1.3c-0.2,0.2-0.5,0.3-0.8,0.3c-0.4,0-0.7-0.2-1-0.4c-0.4-0.5-0.8-1-1.2-1.5c-0.3-0.5-0.6-1.2-1-1.9c-2.3,2.8-5.7,4.5-9.4,4.4c-2.4,0.1-4.7-0.7-6.4-2.3c-1.6-1.6-2.5-3.9-2.4-6.1c-0.1-2.5,1-5,2.9-6.6c2.2-1.8,5-2.6,7.8-2.5c1.1,0,2.3,0.1,3.4,0.3c1.2,0.2,2.4,0.4,3.7,0.7v-2.3c0.2-1.8-0.4-3.7-1.5-5.1c-1.5-1.1-3.3-1.7-5.2-1.5c-1.2,0-2.3,0.1-3.5,0.4c-1.2,0.3-2.3,0.6-3.5,1.1c-0.4,0.2-0.7,0.3-1.1,0.4c-0.2,0.1-0.3,0.1-0.5,0.1c-0.4,0-0.7-0.3-0.7-1v-1.6c0-0.4,0-0.8,0.2-1.1c0.2-0.3,0.5-0.5,0.9-0.7c1.3-0.6,2.6-1.1,4-1.4c1.6-0.4,3.3-0.6,5-0.6c3-0.3,6,0.7,8.4,2.6c1.9,2.1,2.9,5,2.7,7.9L29,42.1L29,42.1z M16.1,47c1.1,0,2.2-0.2,3.3-0.6c1.2-0.4,2.2-1.1,3-2c0.5-0.6,0.9-1.3,1.1-2c0.2-0.9,0.3-1.8,0.3-2.8v-1.4c-1-0.2-2-0.4-3-0.5c-1-0.1-2-0.2-3-0.2c-1.7-0.1-3.4,0.3-4.8,1.3c-1.1,0.9-1.7,2.3-1.6,3.7c-0.3,2.3,1.4,4.3,3.6,4.6C15.4,47,15.7,47,16.1,47 M41.7,50.4c-0.4,0-0.9-0.1-1.2-0.3c-0.3-0.3-0.6-0.8-0.7-1.2l-7.5-24.7c-0.1-0.4-0.2-0.8-0.3-1.3c-0.1-0.4,0.2-0.7,0.6-0.8c0.1,0,0.1,0,0.2,0h3.1c0.4-0.1,0.9,0.1,1.2,0.3c0.3,0.3,0.5,0.8,0.6,1.2l5.4,21.1l5-21.1c0.1-0.5,0.3-0.9,0.6-1.2c0.4-0.2,0.8-0.3,1.3-0.3h2.5c0.4,0,0.9,0.1,1.3,0.3c0.3,0.3,0.5,0.8,0.6,1.2l5,21.4l5.6-21.4c0.1-0.5,0.3-0.9,0.6-1.2c0.4-0.2,0.8-0.3,1.2-0.3h3c0.4-0.1,0.7,0.2,0.8,0.6c0,0.1,0,0.1,0,0.2c0,0.2,0,0.3-0.1,0.5c0,0.3-0.1,0.5-0.2,0.8l-7.7,24.7c-0.1,0.5-0.3,0.9-0.7,1.2c-0.4,0.2-0.8,0.3-1.2,0.3h-2.7c-0.4,0-0.9-0.1-1.3-0.3c-0.3-0.3-0.5-0.8-0.6-1.3l-5-20.6l-4.9,20.6c-0.1,0.5-0.3,0.9-0.6,1.3c-0.4,0.2-0.8,0.4-1.3,0.3L41.7,50.4z M82.8,51.3c-1.7,0-3.3-0.2-4.9-0.6c-1.3-0.3-2.5-0.7-3.7-1.3c-0.4-0.2-0.8-0.5-1-0.9c-0.1-0.3-0.2-0.6-0.2-0.9V46c0-0.7,0.3-1,0.7-1c0.2,0,0.4,0,0.6,0.1c0.2,0.1,0.5,0.2,0.8,0.3c1.1,0.5,2.3,0.9,3.5,1.1c1.3,0.3,2.5,0.4,3.8,0.4c1.6,0.1,3.2-0.3,4.7-1.1c1.1-0.6,1.7-1.8,1.7-3c0-0.8-0.3-1.6-0.8-2.2c-0.9-0.8-2-1.4-3.2-1.7L80,37.5c-2-0.5-3.8-1.7-5.1-3.3c-1-1.3-1.6-3-1.6-4.7c0-1.2,0.3-2.5,0.8-3.5c0.6-1,1.4-1.9,2.3-2.6c1-0.8,2.2-1.3,3.4-1.6c1.3-0.4,2.7-0.6,4-0.5c0.7,0,1.4,0,2.1,0.1c0.7,0.1,1.4,0.2,2.1,0.4c0.7,0.1,1.2,0.3,1.8,0.5c0.5,0.1,0.9,0.3,1.4,0.6c0.4,0.2,0.7,0.5,1,0.8c0.2,0.3,0.3,0.7,0.3,1.1v1.5c0,0.7-0.3,1-0.7,1c-0.4,0-0.8-0.2-1.2-0.4c-1.9-0.9-4-1.3-6.1-1.2c-1.5-0.1-2.9,0.2-4.2,0.9c-1,0.6-1.6,1.7-1.5,2.8c0,0.9,0.3,1.7,1,2.3c1,0.8,2.2,1.4,3.5,1.8l4.5,1.4c1.9,0.5,3.7,1.6,5,3.1c1,1.3,1.5,2.9,1.5,4.5c0,1.3-0.3,2.6-0.8,3.7c-0.6,1.1-1.4,2.1-2.3,2.8c-1.1,0.8-2.3,1.4-3.5,1.8C85.9,51.1,84.3,51.3,82.8,51.3"/>
  <path d="M88.8,66.8c-11.5,7.8-25,11.9-38.9,11.9c-17.5,0.1-34.5-6.4-47.5-18.1c-1-0.9-0.1-2.1,1.1-1.4C18,67.5,34.3,71.8,51,71.8c12.5-0.1,24.8-2.6,36.3-7.4C89,63.6,90.5,65.6,88.8,66.8"/>
  <path d="M93.2,61.9c-1.3-1.7-8.9-0.8-12.3-0.4c-1,0.1-1.2-0.8-0.3-1.4c6-4.2,15.9-3,17-1.6c1.2,1.4-0.3,11.3-5.9,16c-0.8,0.7-1.7,0.4-1.3-0.6C91.7,70.7,94.5,63.5,93.2,61.9"/>
</svg>