<?xml version="1.0" encoding="utf-8"?>
<!-- Generator: Adobe Illustrator 26.3.1, SVG Export Plug-In . SVG Version: 6.00 Build 0)  -->
<svg xmlns="http://www.w3.org/2000/svg" xmlns:xlink="http://www.w3.org/1999/xlink" viewBox="0 0 100 100" style="fill: #161616">
<path class="st0" d="M2,2.3v95.9h95.9V2.3H2z M54.2,77.1c0,9.3-5.5,13.6-13.5,13.6c-7.2,0-11.4-3.7-13.5-8.2l7.3-4.4
	c1.4,2.5,2.7,4.6,5.8,4.6c3,0,4.8-1.2,4.8-5.7V46.3h9V77.1z M75.5,90.7c-8.4,0-13.8-4-16.4-9.2l7.3-4.3c1.9,3.2,4.4,5.5,8.9,5.5
	c3.7,0,6.1-1.9,6.1-4.4c0-3.1-2.5-4.2-6.6-6l-2.3-1c-6.5-2.8-10.8-6.2-10.8-13.6c0-6.8,5.1-11.9,13.2-11.9c5.7,0,9.8,2,12.8,7.2
	l-7,4.5c-1.5-2.8-3.2-3.9-5.8-3.9c-2.6,0-4.3,1.7-4.3,3.9c0,2.7,1.7,3.8,5.5,5.5l2.3,1c7.7,3.3,12,6.6,12,14.2
	C90.5,86.3,84.1,90.7,75.5,90.7z"/>
</svg>
