<?xml version="1.0" encoding="utf-8"?>
<!-- Generator: Adobe Illustrator 26.3.1, SVG Export Plug-In . SVG Version: 6.00 Build 0)  -->
<svg version="1.1"
	 id="svg2169" xmlns:inkscape="http://www.inkscape.org/namespaces/inkscape" xmlns:sodipodi="http://sodipodi.sourceforge.net/DTD/sodipodi-0.dtd" xmlns:svg="http://www.w3.org/2000/svg" xmlns:rdf="http://www.w3.org/1999/02/22-rdf-syntax-ns#" xmlns:cc="http://web.resource.org/cc/" xmlns:dc="http://purl.org/dc/elements/1.1/" sodipodi:version="0.32" inkscape:version="0.45.1" sodipodi:docbase="/home/bene/Desktop" sodipodi:docname="dessin-1.svg" inkscape:output_extension="org.inkscape.output.svg.inkscape"
	 xmlns="http://www.w3.org/2000/svg" xmlns:xlink="http://www.w3.org/1999/xlink" x="0px" y="0px" viewBox="0 0 110.4 109.8"
	 style="enable-background:new 0 0 110.4 109.8;" xml:space="preserve">
<style type="text/css">
	.st0{fill:#FFFFFF;}
</style>
<g id="layer1" transform="translate(-473.36088,-251.72485)" inkscape:label="Calque 1" inkscape:groupmode="layer">
	<g id="g1894" transform="translate(428.42338,184.2561)">
		<path id="path8615" class="st0" d="M99.8,76.5c-23.4,0-21.9,10.1-21.9,10.1l0,10.5h22.3v3.2H69c0,0-15-1.7-15,21.9
			c0,23.6,13.1,22.8,13.1,22.8h7.8v-11c0,0-0.4-13.1,12.9-13.1s22.2,0,22.2,0s12.4,0.2,12.4-12s0-20.2,0-20.2S124.3,76.5,99.8,76.5z
			 M87.5,83.6c2.2,0,4,1.8,4,4c0,2.2-1.8,4-4,4s-4-1.8-4-4C83.5,85.4,85.3,83.6,87.5,83.6z"/>
		<path id="path8620" class="st0" d="M100.5,168.2c23.4,0,21.9-10.1,21.9-10.1l0-10.5h-22.3v-3.2h31.2c0,0,15,1.7,15-21.9
			c0-23.6-13.1-22.8-13.1-22.8h-7.8v11c0,0,0.4,13.1-12.9,13.1c-13.3,0-22.2,0-22.2,0s-12.4-0.2-12.4,12c0,12.2,0,20.2,0,20.2
			S76,168.2,100.5,168.2z M112.8,161.2c-2.2,0-4-1.8-4-4s1.8-4,4-4s4,1.8,4,4C116.8,159.4,115,161.2,112.8,161.2z"/>
	</g>
</g>
</svg>
