<?xml version="1.0" encoding="utf-8"?>
<svg xmlns="http://www.w3.org/2000/svg" xmlns:xlink="http://www.w3.org/1999/xlink" viewBox="0 0 100 100" style="fill: #161616">
  <path d="M50,41.7c4.6,0,8.3,3.7,8.3,8.3s-3.7,8.3-8.3,8.3s-8.3-3.7-8.3-8.3S45.4,41.7,50,41.7L50,41.7"/>
  <path d="M50,69C23.9,69,3.5,60.7,3.5,50S23.9,31,50,31s46.5,8.3,46.5,19S76.1,69,50,69z M50,35.1c-25,0-42.4,7.9-42.4,15S25,65,50,65s42.4-7.9,42.4-15S75,35.1,50,35.1z"/>
  <path d="M68.7,91.4c-9.7,0-24-12.7-35.1-31.9C27.5,49,23.4,38.2,21.9,29.1c-1.6-9.8,0.2-16.6,4.9-19.3C36,4.4,53.4,18,66.4,40.5l0,0C72.5,51,76.6,61.8,78.1,70.9c1.6,9.8-0.2,16.6-4.9,19.3C71.9,91,70.3,91.4,68.7,91.4z M31.4,12.6c-1,0-1.9,0.2-2.6,0.6c-3.1,1.8-4.2,7.3-2.9,15.2c1.4,8.6,5.3,18.9,11.2,29c12.5,21.7,28.1,32.8,34.2,29.3c3.1-1.8,4.2-7.3,2.9-15.2c-1.4-8.6-5.3-18.9-11.2-29C52,23.5,38.7,12.6,31.4,12.6z"/>
  <path d="M31.3,91.4c-1.7,0-3.2-0.4-4.6-1.2c-9.2-5.3-6.2-27.2,6.8-49.7C39.6,30,46.9,21.1,54,15.2C61.7,9,68.5,7.1,73.2,9.8c4.7,2.7,6.4,9.6,4.9,19.3c-1.5,9.1-5.6,19.9-11.7,30.4l0,0C55.3,78.8,41,91.4,31.3,91.4z M68.5,12.6c-3.1,0-7.3,2-11.9,5.8c-6.8,5.5-13.7,14.1-19.5,24.2c-12.5,21.7-14.4,40.7-8.3,44.2c6.1,3.5,21.7-7.6,34.2-29.3l0,0c5.8-10.1,9.8-20.4,11.2-29c1.3-7.9,0.2-13.4-2.9-15.2C70.4,12.8,69.5,12.6,68.5,12.6z"/>
</svg>