<?xml version="1.0" encoding="utf-8"?>
<!-- Generator: Adobe Illustrator 26.3.1, SVG Export Plug-In . SVG Version: 6.00 Build 0)  -->
<svg version="1.1" id="Layer_1" xmlns="http://www.w3.org/2000/svg" xmlns:xlink="http://www.w3.org/1999/xlink" x="0px" y="0px"
	 viewBox="0 0 100 100" style="enable-background:new 0 0 100 100;" xml:space="preserve">
<style type="text/css">
	.st0{clip-path:url(#SVGID_00000039119687852074485580000003040802735516089732_);fill:#FFFFFF;}
</style>
<g>
	<defs>
		<rect id="SVGID_1_" x="4.6" y="4.6" width="90.8" height="90.8"/>
	</defs>
	<clipPath id="SVGID_00000180333070194465386450000015474123388291809686_">
		<use xlink:href="#SVGID_1_"  style="overflow:visible;"/>
	</clipPath>
	<path id="Path_61" style="clip-path:url(#SVGID_00000180333070194465386450000015474123388291809686_);fill:#FFFFFF;" d="
		M44.2,44.9c-0.4-1.2-0.7-2.4-1.1-3.5c-0.4-1.2-0.7-2.3-1-3.4c-0.3-1.1-0.6-2.1-0.8-3h-0.1c-0.3,1.7-0.8,3.4-1.3,5
		c-0.6,1.9-1.2,3.8-1.8,5.7c-0.5,2-1.1,3.8-1.7,5.4h9.8c-0.2-0.8-0.5-1.8-0.9-2.8C44.9,47.3,44.5,46.1,44.2,44.9"/>
	<path id="Path_62" style="clip-path:url(#SVGID_00000180333070194465386450000015474123388291809686_);fill:#FFFFFF;" d="M79.9,4.8
		H20.1C11,4.8,3.7,12.2,3.7,21.2c0,0,0,0,0,0v57.5c0,9.1,7.3,16.4,16.4,16.4c0,0,0,0,0,0h59.8c9.1,0,16.4-7.3,16.4-16.4c0,0,0,0,0,0
		V21.2C96.3,12.2,89,4.8,79.9,4.8C79.9,4.8,79.9,4.8,79.9,4.8 M60.3,68.5h-8.1c-0.3,0-0.5-0.2-0.6-0.4l-3.2-9.2H34.1L31.2,68
		c-0.1,0.3-0.4,0.6-0.7,0.5h-7.3c-0.4,0-0.5-0.2-0.4-0.7L35.2,32c0.1-0.4,0.2-0.8,0.4-1.3c0.2-0.8,0.2-1.7,0.2-2.5
		c0-0.2,0.1-0.4,0.3-0.4h10c0.3,0,0.5,0.1,0.5,0.3l14.1,39.8C60.8,68.3,60.7,68.5,60.3,68.5 M73.6,68.1c0,0.4-0.2,0.6-0.5,0.6h-7.5
		c-0.3,0-0.6-0.2-0.6-0.5c0,0,0-0.1,0-0.1V38.3c0-0.4,0.2-0.5,0.5-0.5h7.6c0.3,0,0.5,0.2,0.5,0.5L73.6,68.1z M72.8,33.2
		c-0.9,0.9-2.2,1.4-3.5,1.4c-1.3,0-2.5-0.5-3.4-1.4c-0.9-1-1.4-2.2-1.3-3.5c0-1.3,0.5-2.5,1.4-3.4c0.9-0.9,2.2-1.4,3.4-1.4
		c1.3-0.1,2.6,0.4,3.5,1.4c0.9,0.9,1.3,2.2,1.3,3.4C74.2,31,73.7,32.3,72.8,33.2"/>
</g>
</svg>
