<?xml version="1.0" encoding="utf-8"?>
<!-- Generator: Adobe Illustrator 26.3.1, SVG Export Plug-In . SVG Version: 6.00 Build 0)  -->
<svg version="1.1" id="Layer_1" xmlns="http://www.w3.org/2000/svg" xmlns:xlink="http://www.w3.org/1999/xlink" x="0px" y="0px"
	 viewBox="0 0 796.6 824.4" style="enable-background:new 0 0 796.6 824.4;" xml:space="preserve">
<style type="text/css">
	.st0{fill:#777777;}
	.st1{fill:#626262;}
	.st2{fill:#B1B1B1;}
	.st3{fill:#DBDBDB;}
	.st4{fill:#848484;}
	.st5{fill:#919191;}
	.st6{fill:#C7C7C7;}
	.st7{fill:#FFFFFF;}
	.st8{fill:#EDEDED;}
	.st9{fill:none;}
</style>
<g id="Group_11" transform="translate(-1123.42)">
	<path id="Path_7" class="st0" d="M1461.4,643.6l412.3-74.4l-85.6-101.5L1461.4,643.6z"/>
	<path id="Path_8" class="st1" d="M1461.4,643.6L1920,624l-46.3-54.8L1461.4,643.6z"/>
	<path id="Path_1" class="st1" d="M1920,0h-796.6l627.5,185H1920V0z"/>
	<path id="Path_9" class="st2" d="M1450.5,741.7L1920,185v248.6L1450.5,741.7z"/>
	<path id="Path_10" class="st3" d="M1920,90.1V185l-469.5,556.6L1920,90.1z"/>
	<path id="Path_5" class="st1" d="M1920,453.9l-469.5-38l469.5,85V453.9z"/>
	<path id="Path_6" class="st4" d="M1920,584.3v-83.5l-469.5-85L1920,584.3z"/>
	<path id="Path_13" class="st5" d="M1635.4,824.4L1920,363v352.9L1635.4,824.4z"/>
	<path id="Path_14" class="st6" d="M1920,715.9V774l-284.6,50.3L1920,715.9z"/>
	<path id="Path_11" class="st7" d="M1920,699.7L1776.5,0h-369.1L1920,761.5V699.7z"/>
	<path id="Path_12" class="st8" d="M1920,761.5L1449.6,0h-114.9L1920,761.5z"/>
	<path id="Path_3" class="st5" d="M1834.4,0h85.6l0,338L1834.4,0z"/>
	<path id="Path_4" class="st6" d="M1401.2,0h433.2l85.5,338L1401.2,0z"/>
	<rect id="Rectangle_1" x="1811.6" y="27" class="st9" width="62.2" height="85.7"/>
</g>
</svg>
