<?xml version="1.0" encoding="utf-8"?>
<!-- Generator: Adobe Illustrator 26.3.1, SVG Export Plug-In . SVG Version: 6.00 Build 0)  -->
<svg version="1.1" id="Layer_1" xmlns="http://www.w3.org/2000/svg" xmlns:xlink="http://www.w3.org/1999/xlink" x="0px" y="0px"
	 viewBox="0 0 1024 1024" style="enable-background:new 0 0 1024 1024;" xml:space="preserve">
<style type="text/css">
	.st0{fill:#FFFFFF;}
	.st1{fill:#F4F4F4;}
</style>
<g>
	<path class="st0" d="M633.9,498.4c-19.9-4.6-39.2,1.9-69.9,13.6c112-112.5,185.1-201.8,176.9-224.4c-15.9-30.4-41.5-48.8-76.3-56.1
		c-25.1-4.2-98.7,39.1-206.5,128.2c16.9-36.7,88-169.7,148.3-119.7c7.2-0.9,10.9-3.9,7.4-11.7c-7.7-20.6-77.5-75.8-101.8-59.3
		c-71.3,61.9-125.3,165.7-151,274.4l0-0.1c-60.1,49.6-38.7,33.7-110.5,106c-6.3,7.9,41.6,37.6,50,31.1l45.9-46.7l0-0.1
		C334.8,669,371.9,796.3,479.3,843.7c119.4-51.2,232.3-214.3,227.1-261.5C703.4,547.5,682.6,515.2,633.9,498.4z M413.7,472.5
		c144.6-118,256.6-199.7,282.1-177.4c-7.8,37.5-166.3,177.2-292.2,295.4C400.3,556,405,515.7,413.7,472.5z M646.6,604.6
		c-30.4,77.6-107.8,145.5-175,192.4c-37.5-31.3-59.5-77-64.9-140.8l13.3,5.5c61.6-54,118.9-93,171.1-114.1
		C661.8,534.1,663.8,563.3,646.6,604.6z"/>
	<path class="st1" d="M346.4,533.5c23.1-22.8,45.5-43,67.4-61l-6.5,36.9c-19.3,12.4-40.4,31-62.6,53.5L346.4,533.5z"/>
</g>
</svg>
