<?xml version="1.0" encoding="utf-8"?>
<!-- Generator: Adobe Illustrator 26.3.1, SVG Export Plug-In . SVG Version: 6.00 Build 0)  -->
<svg version="1.1" id="Layer_1" xmlns="http://www.w3.org/2000/svg" xmlns:xlink="http://www.w3.org/1999/xlink" x="0px" y="0px"
	 viewBox="0 0 796.6 823.6" style="enable-background:new 0 0 796.6 823.6;" xml:space="preserve">
<style type="text/css">
	.st0{fill:#343434;}
	.st1{fill:#4C4C4C;}
	.st2{fill:#3F3F3F;}
	.st3{fill:#595959;}
	.st4{fill:#666666;}
	.st5{fill:#727272;}
	.st6{fill:#FFFFFF;}
	.st7{fill:#BCBCBC;}
	.st8{fill:#A8A8A8;}
	.st9{fill:#D1D1D1;}
	.st10{fill:#E2E2E2;}
	.st11{fill:#EFEFEF;}
</style>
<rect x="-0.1" class="st6" width="796.7" height="823.6"/>
<g>
	<path id="Path_7_00000002371364706632709810000018245085695511814332_" class="st7" d="M338,643.6l412.3-74.4l-85.6-101.5
		L338,643.6z"/>
	<path id="Path_8_00000081625273924652703340000010610893723482746558_" class="st8" d="M338,643.6L796.6,624l-46.3-54.8L338,643.6z
		"/>
	<path id="Path_1_00000031199971413117140760000017982623520019966615_" class="st7" d="M796.5,0H-0.1l627.5,185h169.1V0z"/>
	<path id="Path_9_00000088111752759303029550000009956572723015130546_" class="st9" d="M327,741.7L796.5,185v248.6L327,741.7z"/>
	<path id="Path_10_00000013157828764123002460000013283853956146335147_" class="st10" d="M796.5,90.1V185L327,741.7L796.5,90.1z"/>
	<path id="Path_5_00000151502202273169055890000009537621182137601980_" class="st8" d="M796.5,453.9l-469.5-38l469.5,85V453.9z"/>
	<path id="Path_6_00000140719144883539794320000018411251599621854602_" class="st7" d="M796.5,584.3v-83.5l-469.5-85L796.5,584.3z"
		/>
	<path id="Path_13_00000126293204424363712930000004341642981641488785_" class="st11" d="M512,824.4L796.5,363v352.9L512,824.4z"/>
	<path id="Path_14_00000106827432810747496180000009679214887801149323_" class="st10" d="M796.5,715.9V774l-284.6,50.3L796.5,715.9
		z"/>
	<path id="Path_11_00000152978035700687592780000004544948526716695169_" class="st10" d="M796.5,699.7L653.1,0H284l512.5,761.5
		V699.7z"/>
	<path id="Path_12_00000046326692516325056360000007657709169641838993_" class="st9" d="M796.5,761.5L326.1,0H211.2L796.5,761.5z"
		/>
	<path id="Path_3_00000116948577353402058950000014228996004596242824_" class="st10" d="M711,0h85.6v338L711,0z"/>
	<path id="Path_4_00000031916201427359959790000016616416788703611034_" class="st11" d="M277.8,0H711l85.5,338L277.8,0z"/>
</g>
</svg>
